<svg width="2646" height="1701" xmlns="http://www.w3.org/2000/svg" xmlns:xlink="http://www.w3.org/1999/xlink" overflow="hidden"><defs><clipPath id="clip0"><path d="M0 0 2646 0 2646 1701 0 1701Z" fill-rule="evenodd" clip-rule="evenodd"/></clipPath></defs><g clip-path="url(#clip0)"><rect x="0" y="0" width="2645.93" height="1701" fill="#FFFFFF" transform="scale(1.00003 1)"/><rect x="0" y="0" width="279.992" height="139" stroke="#2F528F" stroke-miterlimit="8" fill="#4472C4" transform="matrix(1.00003 0 -0 1 189.5 30.5)"/><text fill="#FFFFFF" font-family="Calibri,Calibri_MSFontService,sans-serif" font-weight="400" font-size="20" transform="matrix(1 0 0 0.999972 198.274 71)">name : <tspan font-family="Yu Gothic,Yu Gothic_MSFontService,sans-serif" x="58.5073" y="0">前に移動</tspan><tspan x="0" y="24.0007">seq : 0, 0, 0</tspan><tspan x="0" y="47.0013">mode : odometry</tspan><tspan x="0" y="70.002">param : 0, 3000, 500</tspan></text><rect x="0" y="0" width="279.992" height="139" stroke="#2F528F" stroke-miterlimit="8" fill="#4472C4" transform="matrix(1.00003 0 -0 1 189.5 195.5)"/><text fill="#FFFFFF" font-family="Calibri,Calibri_MSFontService,sans-serif" font-weight="400" font-size="20" transform="matrix(1 0 0 0.999972 198.274 236)">name : <tspan font-family="Yu Gothic,Yu Gothic_MSFontService,sans-serif" x="58.5073" y="0">昇降を動かす</tspan><tspan x="0" y="24.0007">seq : 0, 1, 0</tspan><tspan x="0" y="47.0013">mode : rot</tspan><tspan x="0" y="70.002">param : upper, 720</tspan></text><rect x="0" y="0" width="279.992" height="140" stroke="#2F528F" stroke-miterlimit="8" fill="#4472C4" transform="matrix(1.00003 0 -0 1 189.5 360.5)"/><text fill="#FFFFFF" font-family="Calibri,Calibri_MSFontService,sans-serif" font-weight="400" font-size="20" transform="matrix(1 0 0 0.999972 198.274 401)">name : <tspan font-family="Yu Gothic,Yu Gothic_MSFontService,sans-serif" x="58.5073" y="0">昇降を動かす</tspan><tspan x="0" y="24.0007">seq : 0, 2, 0</tspan><tspan x="0" y="47.0013">mode : rot</tspan><tspan x="0" y="70.002">param : lower, 1080</tspan></text><rect x="0" y="0" width="279.992" height="139" stroke="#2F528F" stroke-miterlimit="8" fill="#4472C4" transform="matrix(1.00003 0 -0 1 572.5 30.5)"/><text fill="#FFFFFF" font-family="Calibri,Calibri_MSFontService,sans-serif" font-weight="400" font-size="20" transform="matrix(1 0 0 0.999972 581.206 71)">name : <tspan font-family="Yu Gothic,Yu Gothic_MSFontService,sans-serif" x="58.5074" y="0">サーボを動かす</tspan><tspan x="0" y="24.0007">seq : 1, 0, 0</tspan><tspan x="0" y="47.0013">mode : servo</tspan><tspan x="0" y="70.002">param : </tspan><tspan x="64.6081" y="70.002">ll</tspan><tspan x="73.6093" y="70.002">, 120</tspan></text><rect x="0" y="0" width="279.992" height="139" stroke="#2F528F" stroke-miterlimit="8" fill="#4472C4" transform="matrix(1.00003 0 -0 1 572.5 195.5)"/><text fill="#FFFFFF" font-family="Calibri,Calibri_MSFontService,sans-serif" font-weight="400" font-size="20" transform="matrix(1 0 0 0.999972 581.206 236)">name :<tspan font-family="Yu Gothic,Yu Gothic_MSFontService,sans-serif" x="54.1735" y="0">サーボを動かす</tspan><tspan x="0" y="24.0007">seq : 1, 1, 0</tspan><tspan x="0" y="47.0013">mode : servo</tspan><tspan x="0" y="70.002">param : </tspan><tspan x="64.6081" y="70.002">lr</tspan><tspan x="74.2694" y="70.002">, 120</tspan></text><rect x="0" y="0" width="279.992" height="140" stroke="#2F528F" stroke-miterlimit="8" fill="#4472C4" transform="matrix(1.00003 0 -0 1 572.5 360.5)"/><text fill="#FFFFFF" font-family="Calibri,Calibri_MSFontService,sans-serif" font-weight="400" font-size="20" transform="matrix(1 0 0 0.999972 581.206 401)">name :<tspan font-family="Yu Gothic,Yu Gothic_MSFontService,sans-serif" x="54.1735" y="0">サーボを動かす</tspan><tspan x="0" y="24.0007">seq : 1, 2, 0</tspan><tspan x="0" y="47.0013">mode : servo</tspan><tspan x="0" y="70.002">param : </tspan><tspan x="64.6081" y="70.002">rl</tspan><tspan x="75.9429" y="70.002">, 120</tspan></text><rect x="0" y="0" width="279.992" height="140" stroke="#2F528F" stroke-miterlimit="8" fill="#4472C4" transform="matrix(1.00003 0 -0 1 572.5 525.5)"/><text fill="#FFFFFF" font-family="Calibri,Calibri_MSFontService,sans-serif" font-weight="400" font-size="20" transform="matrix(1 0 0 0.999972 581.206 566)">name :<tspan font-family="Yu Gothic,Yu Gothic_MSFontService,sans-serif" x="54.1735" y="0">サーボを動かす</tspan><tspan x="0" y="24.0007">seq : 1, 3, 0</tspan><tspan x="0" y="47.0013">mode : servo</tspan><tspan x="0" y="70.002">param : </tspan><tspan x="64.6081" y="70.002">rr</tspan><tspan x="76.603" y="70.002">, 120</tspan></text><rect x="0" y="0" width="327.991" height="165" stroke="#2F528F" stroke-miterlimit="8" fill="#4472C4" transform="matrix(1.00003 0 -0 1 955.5 30.5)"/><text fill="#FFFFFF" font-family="Calibri,Calibri_MSFontService,sans-serif" font-weight="400" font-size="20" transform="matrix(1 0 0 0.999972 964.138 72)">name : <tspan font-family="Yu Gothic,Yu Gothic_MSFontService,sans-serif" x="58.5073" y="0">リミットスイッチが</tspan><tspan font-family="Yu Gothic,Yu Gothic_MSFontService,sans-serif" x="58.5073" y="23.0006">押されるまで移動</tspan><tspan x="0" y="47.0013">seq : 2, 0, 0</tspan><tspan x="0" y="70.002">mode : limit</tspan><tspan x="0" y="94.0026">param : front, 30, 90</tspan></text><rect x="0" y="0" width="280.992" height="139" stroke="#2F528F" stroke-miterlimit="8" fill="#4472C4" transform="matrix(1.00003 0 -0 1 1385.5 30.5)"/><text fill="#FFFFFF" font-family="Calibri,Calibri_MSFontService,sans-serif" font-weight="400" font-size="20" transform="matrix(1 0 0 0.999972 1394.92 71)">name : <tspan font-family="Yu Gothic,Yu Gothic_MSFontService,sans-serif" x="58.5073" y="0">電磁弁を開く</tspan><tspan x="0" y="24.0007">seq : 3, 0, 0</tspan><tspan x="0" y="47.0013">mode : solenoid</tspan><tspan x="0" y="70.002">param : main, open</tspan></text><rect x="0" y="0" width="279.992" height="139" stroke="#2F528F" stroke-miterlimit="8" fill="#4472C4" transform="matrix(1.00003 0 -0 1 1768.5 30.5)"/><text fill="#FFFFFF" font-family="Calibri,Calibri_MSFontService,sans-serif" font-weight="400" font-size="20" transform="matrix(1 0 0 0.999972 1777.85 71)">name : <tspan font-family="Yu Gothic,Yu Gothic_MSFontService,sans-serif" x="58.5074" y="0">待機</tspan><tspan x="0" y="24.0007">seq : 4, 0, 0</tspan><tspan x="0" y="47.0013">mode : wait</tspan><tspan x="0" y="70.002">param : 2</tspan></text><rect x="0" y="0" width="279.992" height="139" stroke="#2F528F" stroke-miterlimit="8" fill="#4472C4" transform="matrix(1.00003 0 -0 1 2151.5 30.5)"/><text fill="#FFFFFF" font-family="Calibri,Calibri_MSFontService,sans-serif" font-weight="400" font-size="20" transform="matrix(1 0 0 0.999972 2160.78 71)">name : <tspan font-family="Yu Gothic,Yu Gothic_MSFontService,sans-serif" x="58.5076" y="0">電磁弁を閉じる</tspan><tspan x="0" y="24.0007">seq : 5, 0, 0</tspan><tspan x="0" y="47.0013">mode : solenoid</tspan><tspan x="0" y="70.002">param : main, close</tspan></text><rect x="0" y="0" width="279.992" height="140" stroke="#2F528F" stroke-miterlimit="8" fill="#4472C4" transform="matrix(1.00003 0 -0 1 189.5 875.5)"/><text fill="#FFFFFF" font-family="Calibri,Calibri_MSFontService,sans-serif" font-weight="400" font-size="20" transform="matrix(1 0 0 0.999972 198.274 916)">name : <tspan font-family="Yu Gothic,Yu Gothic_MSFontService,sans-serif" x="58.5073" y="0">後ろに移動</tspan><tspan x="0" y="24.0007">seq : 6, 0, 0</tspan><tspan x="0" y="47.0013">mode : odometry</tspan><tspan x="0" y="70.002">param : 0, 1000, 100</tspan></text><rect x="0" y="0" width="279.992" height="139" stroke="#2F528F" stroke-miterlimit="8" fill="#4472C4" transform="matrix(1.00003 0 -0 1 189.5 1041.5)"/><text fill="#FFFFFF" font-family="Calibri,Calibri_MSFontService,sans-serif" font-weight="400" font-size="20" transform="matrix(1 0 0 0.999972 198.274 1082)">name : <tspan font-family="Yu Gothic,Yu Gothic_MSFontService,sans-serif" x="58.5073" y="0">回転する</tspan><tspan x="0" y="24.0007">seq : 6, 1, 0</tspan><tspan x="0" y="47.0013">mode : turn</tspan><tspan x="0" y="70.002">param : 0, shortest</tspan></text><rect x="0" y="0" width="279.992" height="139" stroke="#2F528F" stroke-miterlimit="8" fill="#4472C4" transform="matrix(1.00003 0 -0 1 189.5 1206.5)"/><text fill="#FFFFFF" font-family="Calibri,Calibri_MSFontService,sans-serif" font-weight="400" font-size="20" transform="matrix(1 0 0 0.999972 198.274 1247)">name : <tspan font-family="Yu Gothic,Yu Gothic_MSFontService,sans-serif" x="58.5073" y="0">昇降を動かす</tspan><tspan x="0" y="24.0007">seq : 6, 2, 0</tspan><tspan x="0" y="47.0013">mode : rot</tspan><tspan x="0" y="70.002">param : lower, 360</tspan></text><rect x="0" y="0" width="279.992" height="140" stroke="#2F528F" stroke-miterlimit="8" fill="#4472C4" transform="matrix(1.00003 0 -0 1 572.5 875.5)"/><text fill="#FFFFFF" font-family="Calibri,Calibri_MSFontService,sans-serif" font-weight="400" font-size="20" transform="matrix(1 0 0 0.999972 581.206 916)">name : <tspan font-family="Yu Gothic,Yu Gothic_MSFontService,sans-serif" x="58.5074" y="0">右に移動</tspan><tspan x="0" y="24.0007">seq : 6, 0, 1</tspan><tspan x="0" y="47.0013">mode : odometry</tspan><tspan x="0" y="70.002">param : 1500, 1000, 300</tspan></text><rect x="0" y="0" width="279.992" height="140" stroke="#2F528F" stroke-miterlimit="8" fill="#4472C4" transform="matrix(1.00003 0 -0 1 955.5 875.5)"/><text fill="#FFFFFF" font-family="Calibri,Calibri_MSFontService,sans-serif" font-weight="400" font-size="20" transform="matrix(1 0 0 0.999972 964.138 916)">name : <tspan font-family="Yu Gothic,Yu Gothic_MSFontService,sans-serif" x="58.5074" y="0">ローラーを回転</tspan><tspan x="0" y="24.0007">seq : 7, 0, 0</tspan><tspan x="0" y="47.0013">mode : rev</tspan><tspan x="0" y="70.002">param : roller, 300</tspan></text><rect x="0" y="0" width="327.991" height="165" stroke="#2F528F" stroke-miterlimit="8" fill="#4472C4" transform="matrix(1.00003 0 -0 1 955.5 1041.5)"/><text fill="#FFFFFF" font-family="Calibri,Calibri_MSFontService,sans-serif" font-weight="400" font-size="20" transform="matrix(1 0 0 0.999972 964.138 1083)">name : <tspan font-family="Yu Gothic,Yu Gothic_MSFontService,sans-serif" x="58.5074" y="0">リミットスイッチが</tspan><tspan font-family="Yu Gothic,Yu Gothic_MSFontService,sans-serif" x="0" y="23.0006">押されるまで移動</tspan><tspan x="0" y="47.0013">seq : 7, 1, 0</tspan><tspan x="0" y="70.002">mode : rev</tspan><tspan x="0" y="94.0026">param : front, 30, 0</tspan></text><rect x="0" y="0" width="280.992" height="139" stroke="#2F528F" stroke-miterlimit="8" fill="#4472C4" transform="matrix(1.00003 0 -0 1 1385.5 1041.5)"/><text fill="#FFFFFF" font-family="Calibri,Calibri_MSFontService,sans-serif" font-weight="400" font-size="20" transform="matrix(1 0 0 0.999972 1394.92 1082)">name : <tspan font-family="Yu Gothic,Yu Gothic_MSFontService,sans-serif" x="58.5073" y="0">左へ移動</tspan><tspan x="0" y="24.0007">seq : 7, 1, 1</tspan><tspan x="0" y="47.0013">mode : odometry</tspan><tspan x="0" y="70.002">param : 1500, 1000, 30</tspan></text><rect x="0" y="0" width="279.992" height="140" stroke="#2F528F" stroke-miterlimit="8" fill="#4472C4" transform="matrix(1.00003 0 -0 1 1768.5 875.5)"/><text fill="#FFFFFF" font-family="Calibri,Calibri_MSFontService,sans-serif" font-weight="400" font-size="20" transform="matrix(1 0 0 0.999972 1777.85 916)">name : <tspan font-family="Yu Gothic,Yu Gothic_MSFontService,sans-serif" x="58.5074" y="0">ローラーを停止</tspan><tspan x="0" y="24.0007">seq : 8, 0, 0</tspan><tspan x="0" y="47.0013">mode : rev</tspan><tspan x="0" y="70.002">param : roller, 0</tspan></text><rect x="0" y="0" width="279.992" height="139" stroke="#2F528F" stroke-miterlimit="8" fill="#4472C4" transform="matrix(1.00003 0 -0 1 1768.5 1041.5)"/><text fill="#FFFFFF" font-family="Calibri,Calibri_MSFontService,sans-serif" font-weight="400" font-size="20" transform="matrix(1 0 0 0.999972 1777.85 1082)">name : <tspan font-family="Yu Gothic,Yu Gothic_MSFontService,sans-serif" x="58.5074" y="0">左へ移動</tspan><tspan x="0" y="24.0007">seq : 8, 1, 0</tspan><tspan x="0" y="47.0013">mode : odometry</tspan><tspan x="0" y="70.002">param : 0, 1000, 300</tspan></text><rect x="0" y="0" width="279.992" height="139" stroke="#2F528F" stroke-miterlimit="8" fill="#4472C4" transform="matrix(1.00003 0 -0 1 1768.5 1206.5)"/><text fill="#FFFFFF" font-family="Calibri,Calibri_MSFontService,sans-serif" font-weight="400" font-size="20" transform="matrix(1 0 0 0.999972 1777.85 1247)">name : <tspan font-family="Yu Gothic,Yu Gothic_MSFontService,sans-serif" x="58.5074" y="0">回転する</tspan><tspan x="0" y="24.0007">seq : 8, 2, 0</tspan><tspan x="0" y="47.0013">mode : turn</tspan><tspan x="0" y="70.002">param : 90, shortest</tspan></text><rect x="0" y="0" width="279.992" height="139" stroke="#2F528F" stroke-miterlimit="8" fill="#4472C4" transform="matrix(1.00003 0 -0 1 2151.5 1041.5)"/><text fill="#FFFFFF" font-family="Calibri,Calibri_MSFontService,sans-serif" font-weight="400" font-size="20" transform="matrix(1 0 0 0.999972 2160.78 1082)">name : <tspan font-family="Yu Gothic,Yu Gothic_MSFontService,sans-serif" x="58.5073" y="0">後ろへ移動</tspan><tspan x="0" y="24.0007">seq : 8, 1, 1</tspan><tspan x="0" y="47.0013">mode : odometry</tspan><tspan x="0" y="70.002">param : 0, 0, 300</tspan></text><rect x="0" y="0" width="279.992" height="140" stroke="#2F528F" stroke-miterlimit="8" fill="#4472C4" transform="matrix(1.00003 0 -0 1 1768.5 1371.5)"/><text fill="#FFFFFF" font-family="Calibri,Calibri_MSFontService,sans-serif" font-weight="400" font-size="20" transform="matrix(1 0 0 0.999972 1777.85 1412)">name : <tspan font-family="Yu Gothic,Yu Gothic_MSFontService,sans-serif" x="58.5074" y="0">昇降を動かす</tspan><tspan x="0" y="24.0007">seq : 8, 3, 0</tspan><tspan x="0" y="47.0013">mode : rot</tspan><tspan x="0" y="70.002">param : upper, 0</tspan></text><rect x="0" y="0" width="279.992" height="140" stroke="#2F528F" stroke-miterlimit="8" fill="#4472C4" transform="matrix(1.00003 0 -0 1 1768.5 1536.5)"/><text fill="#FFFFFF" font-family="Calibri,Calibri_MSFontService,sans-serif" font-weight="400" font-size="20" transform="matrix(1 0 0 0.999972 1777.85 1577)">name : <tspan font-family="Yu Gothic,Yu Gothic_MSFontService,sans-serif" x="58.5074" y="0">昇降を動かす</tspan><tspan x="0" y="24.0007">seq : 8, 4, 0</tspan><tspan x="0" y="47.0013">mode : rot</tspan><tspan x="0" y="70.002">param : lower, 0</tspan></text><path d="M0 0 165.569 0.000314991" stroke="#4472C4" stroke-width="3.99987" stroke-miterlimit="8" fill="none" fill-rule="evenodd" transform="matrix(-1.00003 -8.74252e-08 8.74228e-08 -1 188.573 99.0004)"/><path d="M0 0 102.708 0.000104997" stroke="#4472C4" stroke-width="3.99987" stroke-miterlimit="8" fill="none" fill-rule="evenodd" transform="matrix(1.00003 0 -0 1 469 99)"/><path d="M0 0 39.4778 0 39.4778 330.451" stroke="#4472C4" stroke-width="3.99987" stroke-miterlimit="8" fill="none" fill-rule="evenodd" transform="matrix(-1.00003 -8.74252e-08 8.74228e-08 -1 188.479 429.451)"/><path d="M0 0-36.9151 0-36.9151-330.451" stroke="#4472C4" stroke-width="3.99987" stroke-miterlimit="8" fill="none" fill-rule="evenodd" transform="matrix(-1.00003 -0 -0 1 469 429.451)"/><path d="M0 0 39.4778 0.277822" stroke="#4472C4" stroke-width="3.99987" stroke-miterlimit="8" fill="none" fill-rule="evenodd" transform="matrix(-1.00003 -8.74252e-08 8.74228e-08 -1 188.479 264.278)"/><path d="M0 0 36.9151 0.374525" stroke="#4472C4" stroke-width="3.99987" stroke-miterlimit="8" fill="none" fill-rule="evenodd" transform="matrix(1.00003 0 -0 1 469 265)"/><path d="M0 0 102.707 1.02687" stroke="#4472C4" stroke-width="3.99987" stroke-miterlimit="8" fill="none" fill-rule="evenodd" transform="matrix(1.00003 0 -0 1 852 99)"/><path d="M0 0-102.708-0.000104997" stroke="#4472C4" stroke-width="3.99987" stroke-miterlimit="8" fill="none" fill-rule="evenodd" transform="matrix(1.00003 8.74252e-08 8.74228e-08 -1 1385.71 99)"/><path d="M0 0 102.708 0.000104997" stroke="#4472C4" stroke-width="3.99987" stroke-miterlimit="8" fill="none" fill-rule="evenodd" transform="matrix(1.00003 0 -0 1 1666 99)"/><path d="M0 0 102.708 0.000104997" stroke="#4472C4" stroke-width="3.99987" stroke-miterlimit="8" fill="none" fill-rule="evenodd" transform="matrix(1.00003 0 -0 1 2048 99)"/><path d="M0 0 58.0631 0 58.0631-645.864-2343.27-645.864-2343.27-845.747-2242.67-845.747" stroke="#4472C4" stroke-width="3.99987" stroke-miterlimit="8" fill="none" fill-rule="evenodd" transform="matrix(1.00003 8.74252e-08 8.74228e-08 -1 2431.73 99)"/><path d="M0 0 102.708 0.000104997" stroke="#4472C4" stroke-width="3.99987" stroke-miterlimit="8" fill="none" fill-rule="evenodd" transform="matrix(1.00003 0 -0 1 469 945)"/><path d="M0 0 102.708 0.000104997" stroke="#4472C4" stroke-width="3.99987" stroke-miterlimit="8" fill="none" fill-rule="evenodd" transform="matrix(1.00003 0 -0 1 852 945)"/><path d="M0 0 533.476 0.000104997" stroke="#4472C4" stroke-width="3.99987" stroke-miterlimit="8" fill="none" fill-rule="evenodd" transform="matrix(1.00003 0 -0 1 1235 945)"/><path d="M0 0 53.7648 0 53.7648 330.451" stroke="#4472C4" stroke-width="3.99987" stroke-miterlimit="8" fill="none" fill-rule="evenodd" transform="matrix(-1.00003 -8.74252e-08 8.74228e-08 -1 188.766 1275.45)"/><path d="M0 0-415.734 0-415.734-330.451-412.762-330.451" stroke="#4472C4" stroke-width="3.99987" stroke-miterlimit="8" fill="none" fill-rule="evenodd" transform="matrix(-1.00003 -0 -0 1 469 1275.45)"/><path d="M0 0-102.708-0.7249" stroke="#4472C4" stroke-width="3.99987" stroke-miterlimit="8" fill="none" fill-rule="evenodd" transform="matrix(1.00003 8.74252e-08 8.74228e-08 -1 1385.71 1110)"/><path d="M0 0 0.178137 0 0.178137 165.226 363.591 165.226" stroke="#4472C4" stroke-width="3.99987" stroke-miterlimit="8" fill="none" fill-rule="evenodd" transform="matrix(1.00003 0 -0 1 919 945)"/><path d="M0 0-29.5635 0-29.5635-165.226" stroke="#4472C4" stroke-width="3.99987" stroke-miterlimit="8" fill="none" fill-rule="evenodd" transform="matrix(-1.00003 -0 -0 1 1666 1110.23)"/><path d="M0 0 102.708 0.000104997" stroke="#4472C4" stroke-width="3.99987" stroke-miterlimit="8" fill="none" fill-rule="evenodd" transform="matrix(1.00003 0 -0 1 2048 1110)"/><path d="M0 0 582.734 0.000104997" stroke="#4472C4" stroke-width="3.99987" stroke-miterlimit="8" fill="none" fill-rule="evenodd" transform="matrix(1.00003 0 -0 1 2048 945)"/><path d="M0 0 38.474 0 38.474 660.902" stroke="#4472C4" stroke-width="3.99987" stroke-miterlimit="8" fill="none" fill-rule="evenodd" transform="matrix(-1.00003 -8.74252e-08 8.74228e-08 -1 1768.48 1605.9)"/><path d="M0 0-421.385 0-421.385-660.902" stroke="#4472C4" stroke-width="3.99987" stroke-miterlimit="8" fill="none" fill-rule="evenodd" transform="matrix(-1.00003 -0 -0 1 2048 1605.9)"/><path d="M0 0 38.4637 0.7249" stroke="#4472C4" stroke-width="3.99987" stroke-miterlimit="8" fill="none" fill-rule="evenodd" transform="matrix(1.00003 0 -0 1 2431 1110)"/><path d="M0 0 421.385 0.000104997" stroke="#4472C4" stroke-width="3.99987" stroke-miterlimit="8" fill="none" fill-rule="evenodd" transform="matrix(1.00003 0 -0 1 2048 1276)"/><path d="M0 0 421.385 2.4395" stroke="#4472C4" stroke-width="3.99987" stroke-miterlimit="8" fill="none" fill-rule="evenodd" transform="matrix(1.00003 0 -0 1 2048 1441)"/><path d="M0 0 32.6465 0 32.6465 495.677" stroke="#4472C4" stroke-width="3.99987" stroke-miterlimit="8" fill="none" fill-rule="evenodd" transform="matrix(-1.00003 -8.74252e-08 8.74228e-08 -1 571.647 594.677)"/><path d="M0 0-29.8403 0-29.8403-495.677" stroke="#4472C4" stroke-width="3.99987" stroke-miterlimit="8" fill="none" fill-rule="evenodd" transform="matrix(-1.00003 -0 -0 1 852 594.677)"/><path d="M0 0 32.6465 0.277822" stroke="#4472C4" stroke-width="3.99987" stroke-miterlimit="8" fill="none" fill-rule="evenodd" transform="matrix(-1.00003 -8.74252e-08 8.74228e-08 -1 571.647 264.278)"/><path d="M0 0-29.8403-0.277822" stroke="#4472C4" stroke-width="3.99987" stroke-miterlimit="8" fill="none" fill-rule="evenodd" transform="matrix(-1.00003 -0 -0 1 852 264.278)"/><path d="M0 0-32.6466-0.000104997" stroke="#4472C4" stroke-width="3.99987" stroke-miterlimit="8" fill="none" fill-rule="evenodd" transform="matrix(1.00003 8.74252e-08 8.74228e-08 -1 571.647 430)"/><path d="M0 0 29.8403 0.000104997" stroke="#4472C4" stroke-width="3.99987" stroke-miterlimit="8" fill="none" fill-rule="evenodd" transform="matrix(1.00003 0 -0 1 852 430)"/><path d="M0 0-53.7648-0.000104997" stroke="#4472C4" stroke-width="3.99987" stroke-miterlimit="8" fill="none" fill-rule="evenodd" transform="matrix(1.00003 8.74252e-08 8.74228e-08 -1 188.766 1110)"/><path d="M0 0 415.428 0.37442" stroke="#4472C4" stroke-width="3.99987" stroke-miterlimit="8" fill="none" fill-rule="evenodd" transform="matrix(1.00003 0 -0 1 469 1110)"/><path d="M0 0-38.4742-0.000104997" stroke="#4472C4" stroke-width="3.99987" stroke-miterlimit="8" fill="none" fill-rule="evenodd" transform="matrix(1.00003 8.74252e-08 8.74228e-08 -1 1768.48 1110)"/><path d="M0 0-38.4742-0.000104997" stroke="#4472C4" stroke-width="3.99987" stroke-miterlimit="8" fill="none" fill-rule="evenodd" transform="matrix(1.00003 8.74252e-08 8.74228e-08 -1 1768.48 1276)"/><path d="M0 0-38.4742-0.000104997" stroke="#4472C4" stroke-width="3.99987" stroke-miterlimit="8" fill="none" fill-rule="evenodd" transform="matrix(1.00003 8.74252e-08 8.74228e-08 -1 1768.48 1441)"/></g></svg>